/* XPM */
static char *b089e8f0861b40dbea5591fe14e4d4cckOmRPEtmOBArQmtz[] = {
/* columns rows colors chars-per-pixel */
"64 64 21 1 ",
"  c gray22",
". c #2C2C2C",
"X c #202020",
"o c #7C7C7C",
"O c #CCC400",
"+ c #B4AC00",
"@ c #646464",
"# c black",
"$ c #484848",
"% c #9C9C00",
"& c #848400",
"* c gray44",
"= c gray33",
"- c #706C00",
"; c #585400",
": c #404000",
"> c #E4D800",
", c #4C4C4C",
"< c gray36",
"1 c gray55",
"2 c gray25",
/* pixels */
"                                                                ",
"................................................................",
"..........XoOOOOOOO+@oOOOOo##$@%OOOOOOO%&$.#XXXXXXXXXX..........",
"XXXXXXXX#.Xo*++++++=**o+++$##$o=$%$$---- .###$----;; $ XXXXXXXXX",
"$$$$$$$$#.XO*&&&&&&=*oo--& ##@o@=$==:;;;$.###-%++%%&o*@---;;$$$$",
"o&&&o@ $#.XO@--;;;-$@@=;;-.##$o@$$@@$;:;$.###-+&---*o%+++%%%&ooo",
"$$&&&: $#XXO=-;; $;@=-$ ;;.##X@&@@$@$X$:..###-+--$@$%@-----&&@$@",
"@o:&--:.#XXO=-;;$=;==-$= ;X##X &$&$$=$=:X###:;%-$@%%&$;---;;@@&@",
"=o*-:;:.##XO=$;;$@;$ ;=@$;XX#X:;$&@$$@@$X###;;%-@$%&-=:--;@;$=;@",
"$*$;:: .##XO=@;;$@:=$=$$@;XXXXX:::XXX######X-X%;$@- - =;-;$;=@@=",
"@@*:$= .##X%=@-;$$=$$$$@$; #XXX###########X%;X-:$-:=-==:;;$:=$=$",
"=$===$XX##X%=$-;$ $=@=@=@:.##XX##########X%;X:;X-;$@-$$=;:$@$@$$",
"$$$$$.XX##X;=@:;$  @=$$ =$ ##XXXXX&>>&@>>+;X-:X$::  :...:.      ",
"    .X####.X=*$:$=-$=@ $-=.###X$&>>+%$**+%%-XX$$  .XXX..........",
"XXX..#####.X@*=  -;$$===; .####@>+-&&$,@-$X######XXXXXXXXXXXXXXX",
"##########.X$*@=@;; $ $@;..###X@%-=&&,$$-.:X####################",
"##########.X$o=@=;;$@$@=:.$X##X@%;=<&&=$;.X;XX....#XXXXXXXXXXXXX",
"====---;=##.Xoo;=;:; $=$  ..##X@%;=@&-$<:.#:-&&&;.X. ===========",
"ooo%%%-:$##.X$o:$; ;;=@=$$$X##X@%;=<-:$@$.###&&-;#X o%%&o++++++o",
"@=$&---:*##.X$=$$; ::$=$.$.X##X@;=$$::$...###-;-;#X=%%&$-&&&&&; ",
"@$@&---:$##X.X==$; XX.$.$.X####@$$$$XXXXX### -;; #X=%&$=------; ",
"@&=&---:.##X.X ..XXXXX#########$$XXX######## -;: #X=& ,<------; ",
"@-@&---:.##X.X##################.###########$-;X #X$&$@<@ -;;-: ",
"$-  -;-:.###..X#########XXXXXXX$$=&&&&& .## o-;:.#X$&$,=$--X;-: ",
"$;  -:: X###$&%%%%&@$ #X -%%%%*%&-&&&---;## o-;;.#X -$=$@--X -: ",
"$=@@-:$ X###&%&&&&-==#.X-%%*&-&-;;---;-;:##$o-;:X#X;-$@=--:X@:X ",
"=@==:=$.####%--;;;;:@#.X-%&$-;;;;;;;;:::X##$1-;XX#X-X$ ;;;:X$   ",
"     .X#####%-;;;;;: #XX-%&%-: ;:;;;;: :X##$1-;XX#XX#XXXXXXXX...",
".XX#########%-;;;;;: #XX-%&;-: ; ;;:;: :X##$1-;XX##############X",
"######XXXXXX%-: ;;;: ##X-%&:-: ;=;; ;: XX##-1-;X.##:###:########",
"X  $$=$$$$X#%- $;;;: X#X;&&$-: ;-;; ;: XX##-1-;X.#::---.:-::X###",
" $*&&&&&-@$#&; $:;;: X#X;--$-: ;;;: ;: XX#:-o-;X.#X:---&%&;XXXX.",
" *&-;;;;;@X#;X @,;;: X#X ;:$;  :;;:$;: XXX#-o-;X.#X -:--&&&&;=#.",
" &-;;::;;X@#1=@=@;;: X##.:$@$ $ ;; 2;: .###-o-;X.#X@$ --;;::: #.",
" &-;:@$;;X$#1=$=@;;: X##.$@@;@;$:; 2;;-X##:$*:;X.#Xo@$-:;;X $ #X",
" &-;:=@&;X.#o@@@=;;X X##.$1o;;:=$; =-;XX#X-$*@;:X#X*@$-:.;X$= #X",
" &-;:=&-;X.#oo,= ;;X X##X$*o;: =$: &-:X##XX$*=:XX#Xo@$-: ;X$@.#X",
" ;-;;;;;;X.#oo$=@:;X XX#X.*o:$@=@ ;-::X###X @ :XX#X@@$-;$;X$=.##",
" o;:;:;;;X.#*o,@$$;X XX##.$o@$ ;:XXXXXX###X.##XXXXX$.X........##",
" o*=;@;;;X.#=o=,@@;X .X##.X$$;XXXX#X:XX###X.X::X:..#############",
" o*$;<;:;X.# o-=@<;X .X##XX######:##::XX#XX.::XXX;:XXX##########",
" o*@:=;X;X.#.1;@<$;X .X##XXX#####;XXX;;:::;;:X   :;---        #.",
" o*$<@;:;X.#X1;,-=;X .XX##       &;  X;-&-;:@**oo%%%%%%%%%&;$ #.",
" **@@=;:;X##X1:<;$;X .XX##&ooooo%%%-oo%%%%%%%%%%%%%%%%%%%%&-; #X",
" **-@$;:X.##X1$@:=;X .X:X#&+++++++%&@1o&&&&&&&&&&&&&&&&&&-;; .#X",
" o*-$@;:$.##Xo@@X@;X .XX:;-&%&------;$@o----;:::;--------;..$.##",
"Xo$-@$:X$.##X*$$@$;X .#X::X=& -;--;-; @@-;--:. 2;---;- -;:.$$.##",
"X*@-;$...###X*@$$@:X .#X:XX@==-:--:-; @$-:-;: $=$;--:-$-:: =$.##",
"X  ;:....###X==@$$.. .#XX:#*@@-:--:-: -@: -:.2$<@$-;:---:.$=$.##",
"X##:X....##XX       ..##XX:@o*-:--:;X -:2=-:.$&&<@-: ;:-:.  $.##",
"...;X######X#############XX$**-:;;:XX ::2=-: @;: =-:$: ;:   $.##",
"XXX-::X####X###############$==; XX    @@$$;: $::$@;:==@:X $=$.##",
"X @&&&-$ XX.###############.X#X##XXX.$$   :X      :X         .##",
"X@&%%%&&&&@$$ .X##########X.XX#######X....XX......XX.........X##",
"X@&%-$----&&%%%%%%%%%&&  $  ..XXXXX####XXXXXXXXXXXXXXXXXXXXXX##X",
"X@&%-$&--;$-------------;=o@@@@@$X.X#####:X#######XX##########XX",
"X@&&-$&--;$ &--$---:;---;$oooo*o #X.XXX#;:########:X########XXX.",
"X@*&-$&$-;$=&----&-; &--;$@=@@@  ##.X;&&& XXX...:&-;::XXXXXX....",
"X@o$-$  -:$@&-;-=&-;=&:-;$@==@@ .##XX&;;;$oo*..-%%%%%%-:$o*= XX.",
"X@$     ;X  ;X   ;X  X;;:      .X###X$;;:$*** .%-;---;;-:$$@o=#.",
"X$ XXXXXXXXXXXXXXXXXXXXXXXXXXXXXX###X*;:$=*=$ X%;$-;$;$;:$@$@.#.",
"X###############XXXXXXXXX###########X#XX..    Xo@=-;$$$;:$@$$.#.",
".X################XX##XX#############.XX#######...:X...:X.....#.",
"....XXXXXXXX######XX##XX#############...XX#####..#XX###XX######."
};
