/* XPM */
static char *_64af3f70abe43c7c568b8a729e6d46d2erm2JaanmwhQdXW[] = {
/* columns rows colors chars-per-pixel */
"64 64 18 1 ",
"  c #000070",
". c #00007C",
"X c gray22",
"o c #000088",
"O c #2C2C2C",
"+ c #0000A4",
"@ c #202020",
"# c #0000BC",
"$ c #0000B0",
"% c black",
"& c #000098",
"* c #000058",
"= c #000064",
"- c #0000C8",
"; c #000040",
": c #0000E0",
"> c #0000D4",
", c #00004C",
/* pixels */
" ................... XXooooooooooooooooooooooooooooXX ....... OX",
"+++++++++++++++++++++@@############################@@$$$$$$$$$@%",
"+++o+.++&.&&.&&.+.  *%@#+#$.+#&  &o++o o+#+o&+##+& %@$#+&+$$&.%%",
"+&.o&&&..+&+=&&. .. =%@##+&&& &* **.++=  =  * oo = %@$$++.&++*%%",
"+o+ --&...&oo.=*. **=%@%%%%%%%%%%%%%%%%%%%%%%%%%%%%%@$+$##$+..%%",
"+o.+--=...+&&&o  .**;%@+++++++++++++++++++@@@@@@@@@@@$#+$+..=*%%",
"+&&$$+++&+++&&  =*= =%@+###$+&&#&&$&&$##++%@++++&&=@@$&&+.oo==%%",
"++&+$$+&.=++&oo.==*;;%@+$#:-$+#+&&&$$+++&+%@+&&o&.=%@$&&+ ooo=%%",
"+&.&++o&.&  ooo ..=*;%@+$-#-&$++#&&+.+.&+.%@+&&&..=%@$#+&++oo;%%",
"+ooo+...++ *== =...*;%@+$$$&&&$++++&o=...=%@++&..**%@#..&++&*;%%",
"&.o+oo &++  =*===..*;%@+#$$$&&$##++==o..=*%@++&.+.*%@#.#+.&&*;%%",
"&o&..+o=.*.=*=.;*;;=;%@+#++$$$$#$$+== +==;%@+.o&.**%@##..==..;%%",
"&.&.=oo.=.=.=;  ;;;=;%@+$++&#&&+$$+&&..**=%@+ooo  =%@#. =.=..;%%",
"&&... =**=.= =;; ;=*;%@+$:-oo&&o...o&o.==;%@++oo  =%@#.. ****;%%",
"&.&== =.=;;;;;;;;;;;;%@+#--ooo++.oo.o .=*;%@+.&+***%@%%%%%%%%%%%",
"%%%%%%%%%%%%%%%%%%%%%%@+#++&oo+++oo&==.=*;%@+++&+*=%@@@@@@@@@@@%",
"#$+$+++++$++++%$$$++&&%+$&+o&++++.&&..**;;%@&+&+& =%@++++%#####*",
"$+&+#$+o++.+&.%$$&##.#%++++#+&+++o= .;;=*;%@&&. . *%@+$o.%##+$# ",
"$&&o++o.&&..&&%$##$&..%+$&+#+o.oo=.. ;;=;;%@&&***=;%@+$$.%#+$$$ ",
"+&$$&&...&....%$#$$&&=%+$+++o+..=  ***==*;%@&.*=**;%@+o.*%###$$=",
"o&$#$..&&.&*..%$#&.&&=%+++&&&&.=*==*==*;;;%@&.=**;;%@+*=*%##$$$*",
"+o&$>.&..== ..%$&#...=%%%%%%%%%%%%%%%%%%%%%@%%%%%%%%%%%%%@##++&*",
" ................... XXooooooooooooooooooooooooooooXX ....... OX",
"+++++++++++++++++++++@@############################@@$$$$$$$$$@%",
"+++o+.++&.&&.&&.+.  *%@#+#$.+#&  &o++o o+#+o&+##+& %@$#+&+$$&.%%",
"+&.o&&&..+&+=&&. .. =%@##+&&& &* **.++=  =  * oo = %@$$++.&++*%%",
"+o+ --&...&oo.=*. **=%@%%%%%%%%%%%%%%%%%%%%%%%%%%%%%@$+$##$+..%%",
"+o.+--=...+&&&o  .**;%@+++++++++++++++++++@@@@@@@@@@@$#+$+..=*%%",
"+&&$$+++&+++&&  =*= =%@+###$+&&#&&$&&$##++%@++++&&=@@$&&+.oo==%%",
"++&+$$+&.=++&oo.==*;;%@+$#:-$+#+&&&$$+++&+%@+&&o&.=%@$&&+ ooo=%%",
"+&.&++o&.&  ooo ..=*;%@+$-#-&$++#&&+.+.&+.%@+&&&..=%@$#+&++oo;%%",
"+ooo+...++ *== =...*;%@+$$$&&&$++++&o=...=%@++&..**%@#..&++&*;%%",
"&.o+oo &++  =*===..*;%@+#$$$&&$##++==o..=*%@++&.+.*%@#.#+.&&*;%%",
"&o&..+o=.*.=*=.;*;;=;%@+#++$$$$#$$+== +==;%@+.o&.**%@##..==..;%%",
"&.&.=oo.=.=.=;  ;;;=;%@+$++&#&&+$$+&&..**=%@+ooo  =%@#. =.=..;%%",
"&&... =**=.= =;; ;=*;%@+$:-oo&&o...o&o.==;%@++oo  =%@#.. ****;%%",
"&.&== =.=;;;;;;;;;;;;%@+#--ooo++.oo.o .=*;%@+.&+***%@%%%%%%%%%%%",
"%%%%%%%%%%%%%%%%%%%%%%@+#++&oo+++oo&==.=*;%@+++&+*=%@@@@@@@@@@@%",
"#$+$+++++$++++%$$$++&&%+$&+o&++++.&&..**;;%@&+&+& =%@++++%#####*",
"$+&+#$+o++.+&.%$$&##.#%++++#+&+++o= .;;=*;%@&&. . *%@+$o.%##+$# ",
"$&&o++o.&&..&&%$##$&..%+$&+#+o.oo=.. ;;=;;%@&&***=;%@+$$.%#+$$$ ",
"+&$$&&...&....%$#$$&&=%+$+++o+..=  ***==*;%@&.*=**;%@+o.*%###$$=",
"o&$#$..&&.&*..%$#&.&&=%+++&&&&.=*==*==*;;;%@&.=**;;%@+*=*%##$$$*",
"+o&$>.&..== ..%$&#...=%%%%%%%%%%%%%%%%%%%%%@%%%%%%%%%%%%%@##++&*",
"o.o&+&..&= .**%$&&=..*%@@@@@@@@@@@@@@@@@@@@@@@@@$$$$$$$$@@#++&&=",
"+o&.&.&&. .=.*%$#&o=*=%@$$$$$$$$$$$$$$$$$$$$&+@@$-$-+++&%@#$&&&=",
"$&o$&&&&.. ***%+#.oo=*%@$#$+###$#+$+#$.+###.+*%@$-$--+&o%@##&&&=",
"+o.o$$=.&oo *=%+.=  *=%@$#+$-::#>:+#++##++++.*%@$----+o.%@#$#++=",
"&.o+$$+&.oo *=%&.****=%@$$+#>>:#:>>$.+..+..+**%@$$+-+o+=%@###++*",
"&$&&+$+=.   **%%%%%%%%%@$##$$--++>>++... +..**%@$-++++o=%@###$$=",
"oo++&++= *=*;;%@@@@@@@@@$$#$$$+++#+++.oo..***=%@$--++o. %@#++#$*",
"&o+++&. =*==**%@$$$$++@@$++#$oo+#$.++.ooo   **%@$--&&++*%@#++$$*",
"o&o++.==***=;=%@$$o+&o%@$#$#$oo+++.+++ oo*   ;%@$$-&&&+*%@##&&.*",
"oo.oo.== ..=;;%@$++&o&%@$##+$$$&+...++ *=*=  ;%@$$+o$++=%@#oo&&*",
"o+& .. = ..=*;%@$+&o =%@$#+.+$$++. .=   *;;*;;%@$$-o$$&=%@#oo..*",
"+&oo.==*,, =*;%@$$o$o*%@$++#.++&. ..==  =;;==;%@$+-+o&&*%@##...*",
"&&o....*,,**=;%@$$$  =%@$.#.++.. =...==**===,;%@$-++&* =%@#++&&,",
"oo. ...**=****%@$$$+**%@$+#.++ ==*...=****,,,;%@$-+&.& *%@#++&o,",
"o= .=..*=*;*=*%@$&&*o=%@$+.++.****====*;;;;;;;%@$-+.&&.=%@#&++.,",
"&.=.= *=;;*;;;%@$&&$*=%@%%%%%%%%%%%%%%%%%%%%%%%@+$+.=..=%@#&oo.;",
"o&o . ***;=;*;%@$$o$o*%@@@@@@@@@@@@@@@@@@@@@@@@@+$$+.*=;%@##oo.;",
"&o.= . ;;;;;;;%@$$oo*=%@++++++++++++++++++++++@@+$+#+.=;%@#&&.o;",
"%%%%%%%%%%%%%%%@$$..**%@+######$+++++++&o.#&+.%@+-++#o*;%@%%%%%%",
"@@@@**  ooo. =@@+$...*%@$#--#++$$-#&&++&.o.o&.%@++++oo*;%@o&oo%%"
};
